<svg width="300" height="300" viewBox="33 33 90 90" fill="none" xmlns="http://www.w3.org/2000/svg">
<path d="M78.7317 71.4766C79.3383 71.4766 79.8317 70.9849 79.8317 70.3766C79.8317 69.7683 79.3383 69.2766 78.7317 69.2766C72.19 69.2766 66.8683 74.5983 66.8683 81.1399C66.8683 87.6816 72.19 93.0033 78.7317 93.0033C85.2717 93.0033 90.5933 87.6816 90.5933 81.1399C90.5933 80.5316 90.1017 80.0399 89.4933 80.0399C88.885 80.0399 88.3933 80.5316 88.3933 81.1399C88.3933 86.4666 84.06 90.8016 78.7317 90.8016C73.4033 90.8016 69.0683 86.4666 69.0683 81.1399C69.0683 75.8116 73.4033 71.4766 78.7317 71.4766Z" fill="#100F0D"/>
<path d="M78.7317 60.2467C67.2117 60.2467 57.8383 69.62 57.8383 81.14C57.8383 92.66 67.2117 102.032 78.7317 102.032C90.25 102.032 99.6233 92.66 99.6233 81.14C99.6233 80.5317 99.1317 80.04 98.5233 80.04C97.915 80.04 97.4233 80.5317 97.4233 81.14C97.4233 91.4467 89.0383 99.8317 78.7317 99.8317C68.4233 99.8317 60.04 91.4467 60.04 81.14C60.04 70.8317 68.4233 62.4467 78.7317 62.4467C79.3383 62.4467 79.8317 61.955 79.8317 61.3467C79.8317 60.7384 79.3383 60.2467 78.7317 60.2467Z" fill="#100F0D"/>
<mask id="mask0_275_105" style="mask-type:luminance" maskUnits="userSpaceOnUse" x="48" y="50" width="62" height="62">
<path d="M48 50.3467H109.653V111.84H48V50.3467Z" fill="white"/>
</mask>
<g mask="url(#mask0_275_105)">
<path d="M108.325 80.04C107.717 80.04 107.225 80.5317 107.225 81.14C107.225 96.8517 94.4433 109.633 78.7316 109.633C63.02 109.633 50.2366 96.8517 50.2366 81.14C50.2366 65.4267 63.02 52.645 78.7316 52.645C79.3383 52.645 79.8316 52.1517 79.8316 51.545C79.8316 50.9367 79.3383 50.4434 78.7316 50.4434C61.8066 50.4434 48.035 64.215 48.035 81.14C48.035 98.065 61.8066 111.833 78.7316 111.833C95.6566 111.833 109.425 98.065 109.425 81.14C109.425 80.5317 108.933 80.04 108.325 80.04Z" fill="#100F0D"/>
</g>
<mask id="mask1_275_105" style="mask-type:luminance" maskUnits="userSpaceOnUse" x="77" y="48" width="35" height="35">
<path d="M77.2267 48.2134H112V82.3467H77.2267V48.2134Z" fill="white"/>
</mask>
<g mask="url(#mask1_275_105)">
<path d="M101.825 66.5917L96.3217 65.275L103.175 58.49L108.625 59.7917L101.825 66.5917ZM93.525 58.29L100.323 51.4933L101.622 56.9317L94.8117 63.6733L93.525 58.29ZM111.852 58.8817C111.742 58.4967 111.435 58.2017 111.048 58.11L103.748 56.365L102.007 49.0683C101.913 48.68 101.62 48.3733 101.235 48.265C100.852 48.1567 100.44 48.2617 100.158 48.545L91.5333 57.17C91.2633 57.44 91.1533 57.8317 91.2417 58.2033L92.9817 65.485L77.9567 80.3567C77.5267 80.785 77.5217 81.4817 77.9483 81.9133C78.1633 82.1317 78.4483 82.24 78.7317 82.24C79.01 82.24 79.29 82.1333 79.505 81.9217L94.48 67.0967L101.912 68.8733C101.995 68.895 102.082 68.9033 102.167 68.9033C102.455 68.9033 102.737 68.79 102.945 68.5817L111.57 59.9583C111.852 59.6767 111.958 59.2633 111.852 58.8817Z" fill="#0E48AF"/>
</g>
</svg>
