<svg width="200" height="200" viewBox="65 40 70 70" fill="none" xmlns="http://www.w3.org/2000/svg">
<mask id="mask0_201_111" style="mask-type:luminance" maskUnits="userSpaceOnUse" x="80" y="43" width="52" height="40">
<path d="M80.5333 43.3846H131.733V82.9128H80.5333V43.3846Z" fill="white"/>
</mask>
<g mask="url(#mask0_201_111)">
<path d="M106.735 73.6695C106.173 76.143 102.913 78.7416 97.5313 81.0163C91.4792 78.4569 88.1021 75.4652 88.2458 72.7672C88.3333 71.1478 89.6646 70.1325 90.7792 69.7559C92.7833 69.078 94.6104 69.661 95.7917 70.2696C95.7917 70.2696 95.7938 70.2696 95.7958 70.2711C95.8167 71.3753 96.4292 72.4433 97.5563 73.3125C97.7708 73.4782 98.0667 73.5656 98.3667 73.5656C98.5458 73.5656 98.7271 73.5339 98.8938 73.4692L105.883 70.7411C106.671 71.5349 106.981 72.5804 106.735 73.6695ZM98.2917 59.33C99.0667 58.7109 100.242 58.4563 101.367 58.6672C103.185 59.0091 104.49 59.4626 104.942 59.9145C105.6 60.5728 102.156 64.2801 98.5833 66.3589C97.4917 66.9946 96.6938 67.7584 96.2375 68.5824C95.2958 68.1982 94.3313 67.9647 93.3667 67.8864C93.0729 67.1754 92.4708 65.9371 91.4729 64.7907L98.2917 59.33ZM131.408 53.4896C130.975 53.1778 130.275 53.1778 129.842 53.4896L118.902 61.3757L112.49 66.2022C112.229 66.3996 111.931 66.5638 111.602 66.6918L98.6542 71.7458C98.1771 71.2156 97.9583 70.6311 98.0188 70.0255C98.1042 69.1473 98.7979 68.2871 99.975 67.6017C102.121 66.3529 108.992 61.2311 106.738 58.979C105.956 58.1987 104.335 57.5735 101.925 57.1216C99.9958 56.7586 97.975 57.1969 96.6458 58.262L89.2458 64.1882C88.8938 64.4699 88.8646 64.8917 89.1771 65.1975C90.1229 66.1179 90.7438 67.2402 91.0896 67.9919C90.6667 68.0657 90.2479 68.1711 89.8375 68.3097C88.8563 68.6411 88.0188 69.1669 87.3792 69.8161L83.5042 64.8947C83.0771 64.3539 83.0271 63.6926 83.3688 63.1231C84.7958 60.7415 89.7208 54.8801 91.7729 52.4698C92.2063 51.9606 92.925 51.6292 93.7458 51.5554C98.4604 51.1366 111.175 50.1093 113.958 49.9029C114.213 49.8833 114.45 49.802 114.629 49.6724L121.352 44.8278C121.783 44.5145 121.783 44.0098 121.352 43.698C120.919 43.3862 120.217 43.3862 119.785 43.698L113.34 48.3438C109.91 48.6059 98.0063 49.5685 93.475 49.9707C91.9813 50.1032 90.6729 50.7103 89.8854 51.6338C87.8083 54.0726 82.8188 60.0124 81.3354 62.4904C80.7188 63.5163 80.8104 64.7094 81.575 65.6825L86.2458 71.6133C86.1271 71.9673 86.0521 72.3333 86.0333 72.7069C85.9271 74.6984 87.2042 78.6301 96.9271 82.6086C96.9833 82.6342 97.0417 82.6583 97.1042 82.6763C97.2417 82.717 97.3854 82.7381 97.5292 82.7381C97.6146 82.7381 97.7 82.7306 97.7833 82.7155C97.9 82.6959 98.0104 82.6628 98.1146 82.6161C98.1167 82.6161 98.1167 82.6161 98.1188 82.6161C106.165 79.3261 108.433 76.0768 108.921 73.9271C109.248 72.49 108.854 71.089 107.84 69.9758L112.656 68.0958C113.188 67.8894 113.669 67.6243 114.09 67.3079L120.485 62.492L131.408 54.6195C131.842 54.3076 131.842 53.8015 131.408 53.4896Z" fill="#100F0D"/>
</g>
<mask id="mask1_201_111" style="mask-type:luminance" maskUnits="userSpaceOnUse" x="68" y="83" width="60" height="19">
<path d="M68.3 83.6841H127.467V101.231H68.3V83.6841Z" fill="white"/>
</mask>
<g mask="url(#mask1_201_111)">
<path d="M104.65 89.3045C104.454 89.3497 104.29 89.431 104.162 89.5334C103.779 89.1629 103.315 88.8345 102.777 88.5648L107.458 87.1669C109.598 86.5282 112.04 86.5146 114.185 87.0991L104.65 89.3045ZM99.9729 86.0702C101.875 85.54 103.96 85.4933 105.883 85.909L100.052 87.6504L97.2583 86.8294L99.9729 86.0702ZM117.227 86.4061C117.179 86.379 117.127 86.3549 117.071 86.3338L116.206 86.0054C114.029 85.1784 111.496 84.9012 109.075 85.1874C106.117 83.901 102.427 83.672 99.1729 84.5819L94.2687 85.9512L92.3187 85.3788C89.1896 84.4583 85.6833 84.3574 82.45 85.0941L77.1437 86.3022H69.4812C68.8687 86.3022 68.3729 86.6592 68.3729 87.0991C68.3729 87.5405 68.8687 87.899 69.4812 87.899H77.3146C77.4291 87.899 77.5396 87.8854 77.6479 87.8613L83.1166 86.617C85.8583 85.9919 88.8291 86.0777 91.4833 86.8581L100.765 89.5847C102.208 90.008 103.142 91.0082 103.142 92.1305C103.142 92.474 102.952 92.7933 102.608 93.0313C102.267 93.2678 101.817 93.3899 101.34 93.3778L85.5375 92.9214C84.925 92.9153 84.4104 93.2467 84.3875 93.6881C84.3625 94.1295 84.8375 94.5001 85.45 94.5182L101.252 94.9731C101.306 94.9746 101.36 94.9761 101.415 94.9761C102.437 94.9761 103.402 94.6959 104.144 94.1822C104.925 93.6414 105.356 92.9123 105.356 92.1305C105.356 91.6906 105.265 91.2643 105.096 90.8591C105.173 90.8546 105.25 90.8425 105.327 90.8259L117.465 88.018C120.273 87.3687 123.317 88.2183 124.81 90.0065L100.19 99.2408C99.2083 99.6098 98.0729 99.7273 96.9896 99.5737L76.1041 96.6256C76.0333 96.6166 75.9625 96.6106 75.8916 96.6106H69.4812C68.8687 96.6106 68.3729 96.9691 68.3729 97.4105C68.3729 97.8503 68.8687 98.2074 69.4812 98.2074H75.7833L96.5625 101.142C97.0125 101.205 97.4687 101.237 97.9229 101.237C99.0625 101.237 100.196 101.039 101.212 100.658L126.44 91.1965C127.173 90.9208 127.473 90.2806 127.121 89.7413C125.369 87.0494 121.177 85.6575 117.227 86.4061Z" fill="#0E48AF"/>
</g>
</svg>
