<svg width="200" height="200" viewBox="50 50 100 100" fill="none" xmlns="http://www.w3.org/2000/svg">
<mask id="mask0_201_78" style="mask-type:luminance" maskUnits="userSpaceOnUse" x="98" y="66" width="4" height="11">
<path d="M98.6667 66.65H101.333V76.8H98.6667V66.65Z" fill="white"/>
</mask>
<g mask="url(#mask0_201_78)">
<path d="M99.9396 76.4354C100.662 76.4354 101.146 75.9521 101.146 75.2271V67.8584C101.146 67.1334 100.662 66.65 99.9396 66.65C99.2167 66.65 98.7333 67.1334 98.7333 67.8584V75.3479C98.7333 75.9521 99.2167 76.4354 99.9396 76.4354Z" fill="#0E48AF"/>
</g>
<mask id="mask1_201_78" style="mask-type:luminance" maskUnits="userSpaceOnUse" x="98" y="123" width="4" height="11">
<path d="M98.6667 123.2H101.333V133.45H98.6667V123.2Z" fill="white"/>
</mask>
<g mask="url(#mask1_201_78)">
<path d="M99.9396 123.544C99.2167 123.544 98.7333 124.027 98.7333 124.752V132.242C98.7333 132.967 99.2167 133.45 99.9396 133.45C100.662 133.45 101.146 132.967 101.146 132.242V124.752C101.146 124.027 100.662 123.544 99.9396 123.544Z" fill="#0E48AF"/>
</g>
<path d="M123.34 83.4396L130.094 78.1251C130.575 77.7626 130.696 76.9167 130.335 76.4355C129.973 75.9521 129.129 75.8313 128.646 76.1938L121.892 81.5084C121.408 81.8709 121.287 82.7167 121.65 83.2001C122.012 83.8021 122.735 83.8021 123.34 83.4396Z" fill="#0E48AF"/>
<path d="M76.5396 116.54L69.7854 121.733C69.3042 122.096 69.1833 122.942 69.5438 123.423C69.9063 123.906 70.75 124.027 71.2333 123.665L77.9875 118.35C78.4708 117.988 78.5917 117.142 78.2292 116.66C77.8667 116.177 77.1438 116.177 76.5396 116.54Z" fill="#0E48AF"/>
<path d="M123.34 116.54C122.856 116.177 122.013 116.177 121.65 116.779C121.288 117.262 121.288 118.108 121.892 118.471L128.646 123.785C129.129 124.148 129.973 124.148 130.335 123.544C130.696 123.062 130.696 122.217 130.094 121.854L123.34 116.54Z" fill="#0E48AF"/>
<path d="M76.5396 83.4396C77.0229 83.8021 77.8667 83.8021 78.2292 83.2001C78.5917 82.7167 78.5917 81.8709 77.9875 81.5084L71.2333 76.1938C70.75 75.8313 69.9063 75.8313 69.5438 76.4355C69.1833 77.0376 69.1833 77.7626 69.7854 78.1251L76.5396 83.4396Z" fill="#0E48AF"/>
<path d="M111.881 78.2459C112.483 78.6084 113.208 78.3667 113.569 77.7625L117.308 70.8771C117.671 70.2729 117.429 69.55 116.825 69.1875C116.223 68.825 115.5 69.0667 115.138 69.6709L111.398 76.5563C111.035 77.1584 111.277 77.8834 111.881 78.2459Z" fill="#0E48AF"/>
<path d="M87.9979 121.733C87.3958 121.371 86.6729 121.612 86.3104 122.217L82.5708 129.102C82.2083 129.706 82.45 130.429 83.0542 130.792C83.6562 131.154 84.3812 130.912 84.7417 130.308L88.4812 123.423C88.8437 122.821 88.6021 122.096 87.9979 121.733Z" fill="#0E48AF"/>
<path d="M138.656 111.344L129.852 108.446C129.25 108.204 128.525 108.567 128.283 109.171C128.044 109.775 128.404 110.498 129.008 110.74L137.813 113.64C138.417 113.881 139.14 113.519 139.381 112.915C139.623 112.31 139.26 111.585 138.656 111.344Z" fill="#0E48AF"/>
<path d="M61.2229 88.6354L70.0271 91.5334C70.6312 91.775 71.3542 91.4125 71.5958 90.8084C71.8354 90.2042 71.475 89.4813 70.8708 89.2396L62.0667 86.3396C61.4646 86.0979 60.7396 86.4604 60.4979 87.0646C60.2583 87.6688 60.6187 88.3938 61.2229 88.6354Z" fill="#0E48AF"/>
<mask id="mask2_201_78" style="mask-type:luminance" maskUnits="userSpaceOnUse" x="128" y="86" width="12" height="7">
<path d="M128 86.4H140V92.2667H128V86.4Z" fill="white"/>
</mask>
<g mask="url(#mask2_201_78)">
<path d="M128.525 91.05C128.767 91.6542 129.369 92.0167 130.094 91.8959L139.019 89.1188C139.623 88.8771 139.983 88.2729 139.863 87.5479C139.623 86.9438 139.019 86.5813 138.296 86.7021L129.369 89.4813C128.646 89.7229 128.283 90.4459 128.525 91.05Z" fill="#0E48AF"/>
</g>
<mask id="mask3_201_78" style="mask-type:luminance" maskUnits="userSpaceOnUse" x="60" y="107" width="12" height="7">
<path d="M60 107.733H71.4667V113.6H60V107.733Z" fill="white"/>
</mask>
<g mask="url(#mask3_201_78)">
<path d="M71.3542 108.929C71.1125 108.325 70.5104 107.963 69.7854 108.083L60.9813 110.861C60.3771 111.102 60.0167 111.706 60.1375 112.431C60.3771 113.036 60.9813 113.398 61.7042 113.277L70.6313 110.498C71.2333 110.256 71.5958 109.533 71.3542 108.929Z" fill="#0E48AF"/>
</g>
<path d="M112.967 122.337C112.604 121.733 111.881 121.492 111.277 121.854C110.675 122.217 110.433 122.942 110.796 123.544L114.413 130.429C114.775 131.033 115.5 131.275 116.102 130.912C116.704 130.55 116.946 129.827 116.585 129.223L112.967 122.337Z" fill="#0E48AF"/>
<path d="M86.9125 77.6417C87.275 78.2458 87.9979 78.4875 88.6021 78.125C89.2042 77.7625 89.4458 77.0375 89.0833 76.4354L85.4667 69.55C85.1042 68.9458 84.3812 68.7042 83.7771 69.0667C83.175 69.4292 82.9333 70.1521 83.2958 70.7563L86.9125 77.6417Z" fill="#0E48AF"/>
<path d="M99.9396 83.8021C82.6917 83.8021 68.9417 98.5396 68.3396 99.1438C67.8562 99.6271 67.8562 100.352 68.3396 100.835C68.9417 101.44 82.6917 116.177 99.9396 116.177C117.188 116.177 130.938 101.44 131.542 100.835C132.023 100.352 132.023 99.6271 131.542 99.1438C130.938 98.5396 117.188 83.8021 99.9396 83.8021ZM99.9396 113.76C92.3417 113.76 86.1896 107.6 86.1896 99.9896C86.1896 92.3792 92.3417 86.2188 99.9396 86.2188C107.537 86.2188 113.69 92.3792 113.69 99.9896C113.69 107.6 107.537 113.76 99.9396 113.76ZM88.7229 88.3938C85.7062 91.2917 83.7771 95.4 83.7771 99.9896C83.7771 104.579 85.7062 108.688 88.7229 111.585C79.9167 108.325 73.1625 102.165 70.9917 99.9896C73.1625 97.8146 79.9167 91.6542 88.7229 88.3938ZM111.156 111.585C114.173 108.688 116.102 104.579 116.102 99.9896C116.102 95.4 114.173 91.2917 111.156 88.3938C119.963 91.6542 126.717 97.8146 128.888 99.9896C126.717 102.165 119.963 108.325 111.156 111.585Z" fill="#010101"/>
<path d="M99.9396 90.8083C94.8729 90.8083 90.7729 94.9167 90.7729 99.9896C90.7729 105.063 94.8729 109.171 99.9396 109.171C105.006 109.171 109.106 105.063 109.106 99.9896C109.106 94.9167 105.006 90.8083 99.9396 90.8083ZM99.9396 106.754C96.2 106.754 93.1854 103.733 93.1854 99.9896C93.1854 96.2458 96.2 93.225 99.9396 93.225C103.679 93.225 106.694 96.2458 106.694 99.9896C106.694 103.733 103.679 106.754 99.9396 106.754Z" fill="#010101"/>
</svg>
